<svg width="20" height="20" viewBox="0 0 614 614" fill="none" xmlns="http://www.w3.org/2000/svg">
<rect y="293.034" width="614" height="27.9322" fill="#FFE5F2"/>
<rect x="6.84595" y="372.967" width="614" height="27.9322" transform="rotate(-15 6.84595 372.967)" fill="#FFE5F2"/>
<rect x="34.147" y="448.405" width="614" height="27.9322" transform="rotate(-30 34.147 448.405)" fill="#FFE5F2"/>
<rect x="80.043" y="514.206" width="614" height="27.9322" transform="rotate(-45 80.043 514.206)" fill="#FFE5F2"/>
<rect x="141.405" y="565.887" width="614" height="27.9322" transform="rotate(-60 141.405 565.887)" fill="#FFE5F2"/>
<rect x="214.052" y="599.924" width="614" height="27.9322" transform="rotate(-75 214.052 599.924)" fill="#FFE5F2"/>
<rect x="293.034" y="614" width="614" height="27.9322" transform="rotate(-90 293.034 614)" fill="#FFE5F2"/>
<rect x="372.967" y="607.154" width="614" height="27.9322" transform="rotate(-105 372.967 607.154)" fill="#FFE5F2"/>
<rect x="448.405" y="579.853" width="614" height="27.9322" transform="rotate(-120 448.405 579.853)" fill="#FFE5F2"/>
<rect x="514.206" y="533.957" width="614" height="27.9322" transform="rotate(-135 514.206 533.957)" fill="#FFE5F2"/>
<rect x="565.887" y="472.595" width="614" height="27.9322" transform="rotate(-150 565.887 472.595)" fill="#FFE5F2"/>
<rect x="599.924" y="399.948" width="614" height="27.9322" transform="rotate(-165 599.924 399.948)" fill="#FFE5F2"/>
</svg>
