<svg width="574" height="574" viewBox="0 0 574 574" fill="none" xmlns="http://www.w3.org/2000/svg">
<rect y="273.944" width="574" height="26.1125" fill="#F43B05"/>
<rect x="6.40039" y="348.67" width="574" height="26.1125" transform="rotate(-15 6.40039 348.67)" fill="#F43B05"/>
<rect x="31.9229" y="419.193" width="574" height="26.1125" transform="rotate(-30 31.9229 419.193)" fill="#F43B05"/>
<rect x="74.8281" y="480.707" width="574" height="26.1125" transform="rotate(-45 74.8281 480.707)" fill="#F43B05"/>
<rect x="132.193" y="529.021" width="574" height="26.1125" transform="rotate(-60 132.193 529.021)" fill="#F43B05"/>
<rect x="200.107" y="560.841" width="574" height="26.1125" transform="rotate(-75 200.107 560.841)" fill="#F43B05"/>
<rect x="273.943" y="574" width="574" height="26.1125" transform="rotate(-90 273.943 574)" fill="#F43B05"/>
<rect x="348.669" y="567.6" width="574" height="26.1125" transform="rotate(-105 348.669 567.6)" fill="#F43B05"/>
<rect x="419.193" y="542.077" width="574" height="26.1125" transform="rotate(-120 419.193 542.077)" fill="#F43B05"/>
<rect x="480.708" y="499.172" width="574" height="26.1125" transform="rotate(-135 480.708 499.172)" fill="#F43B05"/>
<rect x="529.021" y="441.807" width="574" height="26.1125" transform="rotate(-150 529.021 441.807)" fill="#F43B05"/>
<rect x="560.841" y="373.892" width="574" height="26.1125" transform="rotate(-165 560.841 373.892)" fill="#F43B05"/>
</svg>
