<svg width="109" height="35" viewBox="0 0 109 35" fill="none" xmlns="http://www.w3.org/2000/svg">
<path d="M40.782 0.399999H31.794V1.408C35.574 1.408 35.658 2.122 35.028 4.6L29.148 27.238H29.022L24.108 4.642C23.562 2.122 23.73 1.408 27.468 1.408V0.399999H15.792V1.408C17.892 1.408 18.606 1.954 19.236 4.6L20.202 8.716L15.456 27.238H15.288L9.366 4.6C8.736 2.122 8.778 1.408 12.264 1.408V0.399999H0.462V1.408C2.94 1.408 3.738 1.954 4.494 4.558L12.852 34.672H15.078L21.042 12.118L26.46 34.672H28.728L36.834 4.6C37.548 1.954 38.346 1.408 40.782 1.408V0.399999ZM50.6267 2.29C51.5507 2.29 52.0547 2.794 52.0547 3.718V29.674C52.0547 32.236 51.5087 32.992 47.5607 32.992V34H61.2527V32.992C57.3467 32.992 56.8007 32.236 56.8007 29.674V3.718C56.8007 2.794 57.3047 2.29 58.1867 2.29H60.9167C64.0247 2.29 64.9907 3.214 65.4527 9.01L66.6287 8.926L66.0827 1.66L65.9987 0.399999H42.8567L42.7307 1.66L42.1847 8.926L43.4027 9.01C43.8227 3.214 44.8307 2.29 47.8967 2.29H50.6267ZM108.335 0.399999H99.3467V1.408C103.127 1.408 103.211 2.122 102.581 4.6L96.7007 27.238H96.5747L91.6607 4.642C91.1147 2.122 91.2827 1.408 95.0207 1.408V0.399999H83.3447V1.408C85.4447 1.408 86.1587 1.954 86.7887 4.6L87.7547 8.716L83.0087 27.238H82.8407L76.9187 4.6C76.2887 2.122 76.3307 1.408 79.8167 1.408V0.399999H68.0147V1.408C70.4927 1.408 71.2907 1.954 72.0467 4.558L80.4047 34.672H82.6307L88.5947 12.118L94.0127 34.672H96.2807L104.387 4.6C105.101 1.954 105.899 1.408 108.335 1.408V0.399999Z" fill="#FFE5F2"/>
</svg>
